# xmcd CD database file
#
# Track frame offsets:
#	150
#	15207
#	27347
#	39684
#	54864
#	67721
#	80391
#	93303
#	106055
#	118585
#	132447
#	147161
#	159370
#	172134
#	184446
#	197031
#	208785
#	223054
#
# Disc length: 3154 seconds
#
# Revision: 0
# Processed by: cddbd v1.5.2PL0 Copyright (c) Steve Scherf et al.
# Submitted via: CDex 1.70beta2
#
DISCID=f50c5012
DTITLE=vari - chicago city blues
DYEAR=1900
DGENRE=Blues
TTITLE0=T-BONE WALKER - I GOT A BABY
TTITLE1=CHAMPION JACK DUPREE - BAD HEALT BLUES
TTITLE2=BUKKA WHITE - DISTRICT ATTORNEY BLUES
TTITLE3=SONNY BOY WILLIAMSON - BABY PLEASE DON'T GO
TTITLE4=LONNIE JOHNSON - LOVE IS THE ANSWER
TTITLE5=BIG JOE WILLIAMS - VITAMIN A
TTITLE6=SONNY TERRY - SCREAMIN AND CRYIN' BLUES
TTITLE7=BILL JAZZ GILLUM - IS THAT A MONKEYYOU GOT
TTITLE8=TAMPA RED - MEAN MISTREATER BLUES
TTITLE9=DR CLAYTON - PEARL HARBOUR BLUES
TTITLE10=ARTHUR BIG BOY CRUDUP - CHICAGO BLUES
TTITLE11=BIG JOE TURNER - I GOT DISCHARGE PAPERS
TTITLE12=CHARLIE SPAND - SOON THIS MORNING N2
TTITLE13=BLIND BOY FULLER and SONNY TERRY - YOU GOT TO HAVE YOUR DOLLAR
TTITLE14=MEMPHIS MINNIE - NOTHING IN RAMBLIN
TTITLE15=BROWNIE MC GHEE - MILLION LONESOME WOMEN
TTITLE16=SLEEPY JOHN ESTES - LAWYER CLARK BLUES
TTITLE17=LIGHTNIN HOPKINS - KATY MAY
EXTD=
EXTT0=
EXTT1=
EXTT2=
EXTT3=
EXTT4=
EXTT5=
EXTT6=
EXTT7=
EXTT8=
EXTT9=
EXTT10=
EXTT11=
EXTT12=
EXTT13=
EXTT14=
EXTT15=
EXTT16=
EXTT17=
PLAYORDER=
